<?xml version="1.0" encoding="UTF-8" standalone="no"?>
<svg width="15px" height="20px" viewBox="0 0 15 20" version="1.1" xmlns="http://www.w3.org/2000/svg" xmlns:xlink="http://www.w3.org/1999/xlink" xmlns:sketch="http://www.bohemiancoding.com/sketch/ns">
    <!-- Generator: Sketch 3.4.2 (15855) - http://www.bohemiancoding.com/sketch -->
    <title>exam</title>
    <desc>Created with Sketch.</desc>
    <defs></defs>
    <g id="Page-1" stroke="none" stroke-width="1" fill="none" fill-rule="evenodd" sketch:type="MSPage">
        <path d="M11.9047619,9.04761905 C11.9047619,9.31095238 11.6919048,9.52380952 11.4285714,9.52380952 L2.85714286,9.52380952 C2.59380952,9.52380952 2.38095238,9.31095238 2.38095238,9.04761905 C2.38095238,8.7847619 2.59380952,8.57142857 2.85714286,8.57142857 L11.4285714,8.57142857 C11.6919048,8.57142857 11.9047619,8.7847619 11.9047619,9.04761905 M11.4285714,13.3333333 L2.85714286,13.3333333 C2.59380952,13.3333333 2.38095238,13.1204762 2.38095238,12.8571429 C2.38095238,12.5942857 2.59380952,12.3809524 2.85714286,12.3809524 L11.4285714,12.3809524 C11.6919048,12.3809524 11.9047619,12.5942857 11.9047619,12.8571429 C11.9047619,13.1204762 11.6919048,13.3333333 11.4285714,13.3333333 M11.4285714,17.1428571 L2.85714286,17.1428571 C2.59380952,17.1428571 2.38095238,16.93 2.38095238,16.6666667 C2.38095238,16.4038095 2.59380952,16.1904762 2.85714286,16.1904762 L11.4285714,16.1904762 C11.6919048,16.1904762 11.9047619,16.4038095 11.9047619,16.6666667 C11.9047619,16.93 11.6919048,17.1428571 11.4285714,17.1428571 M9.52380952,4.28571429 L9.52380952,0 L0.952380952,0 C0.426666667,0 0,0.426666667 0,0.952380952 L0,19.047619 C0,19.5733333 0.426666667,20 0.952380952,20 L13.3333333,20 C13.8590476,20 14.2857143,19.5733333 14.2857143,19.047619 L14.2857143,4.76190476 L10,4.76190476 C9.73666667,4.76190476 9.52380952,4.54857143 9.52380952,4.28571429 M10.4761905,0.657619048 L10.4761905,3.80952381 L13.6280952,3.80952381 L10.4761905,0.657619048 L10.4761905,0.657619048 L10.4761905,0.657619048 Z" id="exam" fill="#000000" sketch:type="MSShapeGroup"></path>
    </g>
</svg>