<?xml version="1.0" encoding="UTF-8" standalone="no"?>
<svg width="37px" height="37px" viewBox="0 0 37 37" version="1.1" xmlns="http://www.w3.org/2000/svg" xmlns:xlink="http://www.w3.org/1999/xlink" xmlns:sketch="http://www.bohemiancoding.com/sketch/ns">
    <!-- Generator: Sketch 3.3.2 (12043) - http://www.bohemiancoding.com/sketch -->
    <title>Shape</title>
    <desc>Created with Sketch.</desc>
    <defs></defs>
    <g id="Page-1" stroke="none" stroke-width="1" fill="none" fill-rule="evenodd" sketch:type="MSPage">
        <g id="start-for-font" sketch:type="MSLayerGroup" transform="translate(-1.000000, 0.000000)" fill="#979797">
            <g id="Page-1" sketch:type="MSShapeGroup">
                <g id="star">
                    <path d="M8.52392756,35.3998877 L18.9155138,27.7858139 L19.5065532,27.3527503 L20.0975926,27.7858139 L30.4891787,35.3998877 L30.8495389,36.6456623 L30.6693469,36.771606 L29.6232542,36.0051179 L25.9295432,23.2358654 L25.7432721,22.5919215 L26.2681652,22.1749706 L36.4451852,14.0908152 L37.6529861,14.1151736 L37.7310674,14.3464751 L36.7851419,15.0978747 L24.0497102,14.8410319 L23.3418441,14.8267559 L23.1201575,14.1543474 L18.9800801,1.59687182 L19.4033231,0.31311217 L19.6097832,0.31311217 L20.0330263,1.59687182 L15.8929488,14.1543474 L15.6712622,14.8267559 L14.9633961,14.8410319 L2.22796438,15.0978747 L1.2820389,14.3464751 L1.36012016,14.1151736 L2.56792106,14.0908152 L12.744941,22.1749706 L13.2698341,22.5919215 L13.083563,23.2358654 L9.38985208,36.0051179 L8.34375939,36.771606 L8.16356729,36.6456623 L8.52392756,35.3998877 L8.52392756,35.3998877 Z M19.5065532,28.5924566 L8.06887428,36.9730185 L12.1229455,22.9579914 L1,14.1224364 L14.9432327,13.8412352 L19.5065532,0 L24.0698737,13.8412352 L38.0131063,14.1224364 L26.8901608,22.9579914 L30.944232,36.9730185 L19.5065532,28.5924566 L19.5065532,28.5924566 Z" id="Shape"></path>
                </g>
            </g>
        </g>
    </g>
</svg>